<svg width="47" height="34" xmlns="http://www.w3.org/2000/svg">

 <g>
  <title>Layer 1</title>
  <g stroke="null" id="svg_1" stroke-linecap="round" fill-rule="evenodd" fill="none">
   <g stroke="null" id="svg_2" stroke-width="3.025" stroke-linejoin="round">
    <path stroke="#231F20" id="svg_3" d="m0.00003,5.889l13.69,0m-8.214,6.667l10.405,0m-5.477,5.555l6.572,0"/>
    <path stroke="#000" id="svg_4" d="m34.02203,11.319l0,-9.319l-21.427,0l0,22.222l32.856,0l0,-11.847s0.228,-6.432 -5.829,-6.432l-5.6,0.176m-8.284,21.992c0,2.149 -1.717,3.889 -3.833,3.889c-2.118,0 -3.834,-1.74 -3.834,-3.889c0,-2.148 1.716,-3.889 3.834,-3.889c2.116,0 3.833,1.74 3.833,3.89l0,-0.001zm16.428,0c0,2.149 -1.716,3.889 -3.833,3.889s-3.833,-1.74 -3.833,-3.889c0,-2.148 1.716,-3.889 3.833,-3.889s3.833,1.74 3.833,3.89l0,-0.001z"/>
   </g>
  </g>
 </g>
</svg>